<svg width="270" height="58" viewBox="0 0 270 58" fill="none" xmlns="http://www.w3.org/2000/svg">
<path d="M236.17 18C237.711 18 239.152 18.4992 240.42 19.4399C241.744 20.419 242.466 21.9549 242.622 23.7981C242.637 23.8556 242.607 23.9024 242.559 23.9222L242.505 23.9324H239.503C239.459 23.9324 239.415 23.9108 239.396 23.8757L239.386 23.8364C239.035 21.1677 235.742 20.4383 233.755 21.7438C232.37 22.6653 232.097 24.7771 233.423 25.8522C233.942 26.2746 234.54 26.6117 235.147 26.9373L236.751 27.7996L238.161 28.5137C238.865 28.8712 239.562 29.2408 240.225 29.6727C242.505 31.1702 243.264 33.4357 242.854 35.9507C242.388 38.5233 240.088 41 235.645 41C233.948 41 232.312 40.5392 230.811 39.4258C229.214 38.2545 228.629 36.9683 228.629 34.6453C228.629 34.602 228.662 34.5588 228.703 34.5399L228.746 34.53H232C232.058 34.53 232.117 34.5876 232.117 34.6453C232.117 34.8564 232.156 35.3364 232.234 35.586C232.682 36.9683 233.968 37.8514 235.625 37.9474C237.145 38.0434 238.665 37.2178 239.25 36.0275C239.893 34.722 239.425 33.0709 237.945 32.1686L237.754 32.0548L237.051 31.6575L236.203 31.1997L232.109 29.0675L231.861 28.9308L231.785 28.8857C227.517 26.2746 228.239 18 236.17 18ZM255.62 18.4417C255.664 18.4417 255.708 18.4741 255.727 18.5146L255.738 18.5569V27.1962C255.738 27.273 255.812 27.3252 255.882 27.3038L255.933 27.2731L264.527 18.4801C264.54 18.4673 264.553 18.4545 264.572 18.4473L264.605 18.4417H268.756C268.834 18.4417 268.887 18.5154 268.865 18.5842L268.834 18.6337L258.699 29.001C258.673 29.0266 258.664 29.0692 258.673 29.1061L258.699 29.1545L269.963 40.6161C270.026 40.6622 270.001 40.7574 269.948 40.8036L269.905 40.8274H265.754L265.715 40.8154L265.676 40.7889L255.933 30.8823C255.886 30.821 255.789 30.8456 255.752 30.907L255.738 30.9592V40.7121C255.738 40.7553 255.705 40.7986 255.663 40.8175L255.62 40.8274H252.365C252.321 40.8274 252.277 40.795 252.258 40.7544L252.248 40.7121V18.5569C252.248 18.5137 252.281 18.4705 252.322 18.4516L252.365 18.4417H255.62ZM90.0865 18.4225C90.1255 18.4225 90.1558 18.431 90.1775 18.4538L90.2035 18.4993L92.8734 27.1771C92.9046 27.2693 93.0106 27.2877 93.0717 27.2324L93.1073 27.1771L95.777 18.4993C95.79 18.4737 95.8117 18.4481 95.842 18.4339L95.894 18.4225H100.825C100.868 18.4225 100.912 18.4549 100.931 18.4954L100.941 18.5377V40.693C100.941 40.7361 100.909 40.7793 100.868 40.7982L100.825 40.8081H97.57C97.5262 40.8081 97.4824 40.7757 97.4632 40.7352L97.4531 40.693V23.8557C97.4531 23.7437 97.3178 23.6984 97.2501 23.7642L97.2192 23.8173L94.5298 32.5527L94.335 33.167C94.322 33.1926 94.3003 33.2183 94.27 33.2325L94.2181 33.2439H91.7235C91.6845 33.2439 91.6542 33.2354 91.6325 33.2126L91.6065 33.167L91.4117 32.5527L88.7224 23.8173C88.6899 23.7214 88.5492 23.7187 88.5031 23.7982L88.4885 23.8557V40.693C88.4885 40.7361 88.4556 40.7793 88.4145 40.7982L88.3715 40.8081H85.117C85.0731 40.8081 85.0293 40.7757 85.0101 40.7352L85 40.693V18.5377C85 18.4945 85.0329 18.4513 85.074 18.4324L85.117 18.4225H90.0865ZM184.585 18.4225C184.624 18.4225 184.655 18.431 184.676 18.4538L184.702 18.4993L187.372 27.1771C187.404 27.2693 187.51 27.2877 187.571 27.2324L187.606 27.1771L190.275 18.4993C190.288 18.4737 190.31 18.4481 190.34 18.4339L190.392 18.4225H195.343C195.386 18.4225 195.43 18.4549 195.45 18.4954L195.46 18.5377V40.693C195.46 40.7361 195.427 40.7793 195.386 40.7982L195.343 40.8081H192.089C192.045 40.8081 192.001 40.7757 191.982 40.7352L191.972 40.693V23.8557C191.972 23.7437 191.836 23.6984 191.769 23.7642L191.738 23.8173L189.048 32.5527L188.853 33.167C188.84 33.1926 188.818 33.2183 188.788 33.2325L188.736 33.2439H186.241C186.202 33.2439 186.172 33.2354 186.15 33.2126L186.124 33.167L185.929 32.5527L183.241 23.8173C183.209 23.7214 183.068 23.7187 183.022 23.7982L183.007 23.8557V40.693C183.007 40.7361 182.974 40.7793 182.933 40.7982L182.89 40.8081H179.635C179.591 40.8081 179.547 40.7757 179.528 40.7352L179.518 40.693V18.5377C179.518 18.4945 179.551 18.4513 179.592 18.4324L179.635 18.4225H184.585ZM148.415 18.4225C148.473 18.4225 148.51 18.4549 148.524 18.4954L148.532 18.5377V21.3022C148.532 21.3455 148.499 21.3887 148.458 21.4076L148.415 21.4175H142.471V40.693C142.471 40.7361 142.438 40.7793 142.397 40.7982L142.354 40.8081H139.099C139.055 40.8081 139.012 40.7757 138.992 40.7352L138.982 40.693V21.4175H133.039C132.995 21.4175 132.951 21.3851 132.932 21.3446L132.922 21.3022V18.5377C132.922 18.4945 132.954 18.4513 132.996 18.4324L133.039 18.4225H148.415ZM164.454 18.3454C164.493 18.3454 164.523 18.354 164.545 18.3767L164.571 18.4222L170.69 40.6543C170.704 40.7119 170.675 40.7695 170.627 40.7946L170.573 40.8078H167.611C167.585 40.8078 167.551 40.7908 167.525 40.768L167.494 40.7311L165.721 34.2611C165.708 34.2355 165.687 34.2099 165.656 34.1957L165.604 34.1843H159.056C159.017 34.1843 158.986 34.1929 158.965 34.2156L158.939 34.2611L157.165 40.7311C157.152 40.7567 157.131 40.7822 157.1 40.7965L157.048 40.8078H154.086C154.028 40.8078 153.98 40.7647 153.968 40.7107L153.969 40.6543L160.088 18.4222C160.101 18.3966 160.123 18.371 160.153 18.3568L160.205 18.3454H164.454ZM214.967 18.3454C215.006 18.3454 215.037 18.354 215.058 18.3767L215.084 18.4222L221.203 40.6543C221.218 40.7119 221.189 40.7695 221.14 40.7946L221.086 40.8078H218.125C218.086 40.8078 218.056 40.7908 218.034 40.768L218.008 40.7311L216.235 34.2611C216.222 34.2355 216.2 34.2099 216.17 34.1957L216.118 34.1843H209.57C209.531 34.1843 209.5 34.1929 209.479 34.2156L209.453 34.2611L207.68 40.7311C207.667 40.7567 207.645 40.7822 207.615 40.7965L207.563 40.8078H204.6C204.541 40.8078 204.494 40.7647 204.482 40.7107L204.483 40.6543L210.602 18.4222C210.615 18.3966 210.637 18.371 210.667 18.3568L210.719 18.3454H214.967ZM124.133 18.4417C124.176 18.4417 124.22 18.4741 124.24 18.5146L124.25 18.5569V21.3215C124.25 21.3646 124.217 21.4078 124.176 21.4267L124.133 21.4366H114.272C114.228 21.4366 114.184 21.469 114.165 21.5096L114.155 21.5519V27.4266C114.155 27.4698 114.187 27.513 114.229 27.5319L114.272 27.5419H122.944C122.988 27.5419 123.032 27.5743 123.051 27.6147L123.061 27.657V30.4216C123.061 30.4648 123.028 30.508 122.987 30.5269L122.944 30.5368H114.272C114.228 30.5368 114.184 30.5693 114.165 30.6097L114.155 30.652V37.5251C114.155 37.5763 114.172 37.6105 114.201 37.6332L114.252 37.6595H124.542C124.586 37.6595 124.63 37.6919 124.649 37.7324L124.659 37.7748V40.6929C124.659 40.7361 124.626 40.7793 124.585 40.7982L124.542 40.8081H110.783C110.739 40.8081 110.695 40.7757 110.676 40.7352L110.666 40.6929V18.5569C110.666 18.5137 110.699 18.4705 110.74 18.4516L110.783 18.4417H124.133ZM162.447 22.3579C162.415 22.2658 162.309 22.2474 162.248 22.3026L162.213 22.3579L159.835 31.0166C159.821 31.0741 159.85 31.1317 159.898 31.1569L159.952 31.1701H164.707C164.766 31.1701 164.813 31.1269 164.825 31.0729L164.824 31.0166L162.447 22.3579ZM212.96 22.3579C212.929 22.2658 212.823 22.2474 212.762 22.3026L212.726 22.3579L210.348 31.0166C210.334 31.0741 210.363 31.1317 210.411 31.1569L210.465 31.1701H215.221C215.279 31.1701 215.327 31.1269 215.339 31.0729L215.338 31.0166L212.96 22.3579Z" fill="url(#paint0_linear_2_295)"/>
<path d="M59.8173 0L33.5413 19.4424L38.4275 7.98437L59.8173 0Z" fill="#E17726"/>
<path d="M1.4798 0.0228271L22.8123 7.98575L27.452 19.594L1.4798 0.0228271Z" fill="#E27625"/>
<path d="M49.2431 41.3486L60.8566 41.5697L56.7979 55.358L42.6268 51.4562L49.2431 41.3486Z" fill="#E27625"/>
<path d="M11.9936 41.3486L18.5855 51.4562L4.43809 55.3582L0.403992 41.5697L11.9936 41.3486Z" fill="#E27625"/>
<path d="M26.8223 16.6372L27.2971 31.9663L13.0952 31.3202L17.1348 25.2258L17.1859 25.167L26.8223 16.6372Z" fill="#E27625"/>
<path d="M34.2669 16.4661L44.0503 25.1675L44.1009 25.2258L48.1406 31.3202L33.9421 31.9661L34.2669 16.4661Z" fill="#E27625"/>
<path d="M19.0012 41.3931L26.7558 47.4351L17.7478 51.7842L19.0012 41.3931Z" fill="#E27625"/>
<path d="M42.2361 41.3923L43.4635 51.7845L34.4808 47.4349L42.2361 41.3923Z" fill="#E27625"/>
<path d="M34.6796 46.8657L43.7949 51.2795L35.3158 55.3094L35.4039 52.6459L34.6796 46.8657Z" fill="#D5BFB2"/>
<path d="M26.5554 46.8673L25.8595 52.6019L25.9166 55.3058L17.4175 51.2791L26.5554 46.8673Z" fill="#D5BFB2"/>
<path d="M23.923 33.9669L26.305 38.973L18.1951 36.5973L23.923 33.9669Z" fill="#233447"/>
<path d="M37.3143 33.9673L43.0691 36.597L34.9329 38.9721L37.3143 33.9673Z" fill="#233447"/>
<path d="M19.6206 41.3422L18.3097 52.1159L11.2836 41.5777L19.6206 41.3422Z" fill="#CC6228"/>
<path d="M41.6152 41.3422L49.9525 41.5777L42.8999 52.1162L41.6152 41.3422Z" fill="#CC6228"/>
<path d="M48.346 30.7112L42.2785 36.8949L37.6005 34.7571L35.3607 39.4656L33.8924 31.3688L48.346 30.7112Z" fill="#CC6228"/>
<path d="M12.8868 30.7107L27.3429 31.3684L25.8747 39.4652L23.6344 34.7573L18.981 36.8946L12.8868 30.7107Z" fill="#CC6228"/>
<path d="M12.478 29.4421L19.3427 36.408L19.5807 43.2849L12.478 29.4421Z" fill="#E27525"/>
<path d="M48.7642 29.4293L41.6488 43.2968L41.9167 36.4076L48.7642 29.4293Z" fill="#E27525"/>
<path d="M27.0071 29.8662L27.2834 31.6052L27.9661 35.9374L27.5272 49.2433L25.452 38.5546L25.4514 38.444L27.0071 29.8662Z" fill="#E27525"/>
<path d="M34.2256 29.8422L35.7855 38.444L35.7848 38.5545L33.7045 49.27L33.6221 46.5898L33.2975 35.8586L34.2256 29.8422Z" fill="#E27525"/>
<path d="M42.5273 36.1309L42.295 42.1057L35.0533 47.7479L33.5894 46.7136L35.2303 38.2611L42.5273 36.1309Z" fill="#F5841F"/>
<path d="M18.7338 36.1312L26.0055 38.2616L27.6465 46.7138L26.1825 47.7482L18.9404 42.1055L18.7338 36.1312Z" fill="#F5841F"/>
<path d="M16.0308 49.9596L25.2957 54.3495L25.2564 52.4749L26.0316 51.7945H35.2013L36.0045 52.4726L35.9454 54.3459L45.1515 49.9707L40.6718 53.6725L35.2548 57.3931H25.9574L20.544 53.6573L16.0308 49.9596Z" fill="#C0AC9D"/>
<path d="M34.0158 46.2814L35.3257 47.2067L36.0934 53.3315L34.9824 52.3934H26.2573L25.1675 53.3504L25.91 47.2072L27.2204 46.2814H34.0158Z" fill="#161616"/>
<path d="M58.0824 0.53833L61.2365 10.0007L59.2667 19.568L60.6694 20.6501L58.7713 22.0982L60.1978 23.1999L58.3089 24.9201L59.4686 25.7599L56.391 29.3542L43.7682 25.6789L43.6588 25.6203L34.5625 17.9469L58.0824 0.53833Z" fill="#763E1A"/>
<path d="M3.15416 0.53833L26.6741 17.9469L17.5778 25.6203L17.4685 25.6789L4.84551 29.3542L1.76802 25.7599L2.92674 24.9207L1.03875 23.1999L2.46251 22.0994L0.536139 20.6472L1.99169 19.5644L0 10.001L3.15416 0.53833Z" fill="#763E1A"/>
<path d="M43.1502 24.875L56.5249 28.769L60.8701 42.161L49.4065 42.161L41.5078 42.2606L47.2521 31.0639L43.1502 24.875Z" fill="#F5841F"/>
<path d="M18.0854 24.875L13.9827 31.0639L19.7278 42.2606L11.8329 42.161H0.389587L4.71044 28.7691L18.0854 24.875Z" fill="#F5841F"/>
<path d="M39.0818 7.92078L35.3408 18.0245L34.5469 31.6737L34.2431 35.9518L34.219 46.8805H27.0162L26.9929 35.9723L26.6881 31.67L25.8939 18.0245L22.1535 7.92078H39.0818Z" fill="#F5841F"/>
<defs>
<linearGradient id="paint0_linear_2_295" x1="92.1154" y1="21.864" x2="224.081" y2="106.414" gradientUnits="userSpaceOnUse">
<stop stop-color="#F4E07F"/>
<stop offset="0.259539" stop-color="#E1A93C"/>
<stop offset="0.769976" stop-color="#F4E07F"/>
<stop offset="0.967671" stop-color="#E1A93C"/>
</linearGradient>
</defs>
</svg>
